<svg width="400" height="400" viewBox="0 0 400 400" fill="none" xmlns="http://www.w3.org/2000/svg">
<path d="M200 0C146.957 0 96.0859 21.0714 58.5786 58.5786C21.0714 96.0859 0 146.957 0 200C0 253.043 21.0714 303.914 58.5786 341.421C96.0859 378.929 146.957 400 200 400C253.043 400 303.914 378.929 341.421 341.421C378.929 303.914 400 253.043 400 200C400 146.957 378.929 96.0859 341.421 58.5786C303.914 21.0714 253.043 0 200 0ZM331.528 209.683C330.071 228.184 324.73 246.17 315.852 262.467C306.975 278.764 294.762 293.007 280.01 304.266C265.257 315.525 248.296 323.547 230.234 327.809C212.172 332.071 193.414 332.477 175.185 329C172.393 328.424 169.887 326.9 168.092 324.686C166.297 322.472 165.324 319.705 165.337 316.855V283.801C165.338 283.156 165.49 282.519 165.783 281.944C166.076 281.369 166.5 280.871 167.021 280.49C167.542 280.109 168.146 279.857 168.783 279.754C169.42 279.65 170.073 279.699 170.688 279.895C187.808 286.121 206.467 286.727 223.956 281.627C241.444 276.526 256.852 265.983 267.94 251.529C279.029 237.075 285.222 219.463 285.619 201.25C286.016 183.037 280.598 165.172 270.15 150.248C259.702 135.324 244.769 124.12 227.52 118.261C210.27 112.402 191.602 112.194 174.227 117.668C156.851 123.141 141.673 134.011 130.895 148.698C120.118 163.386 114.303 181.126 114.295 199.344C114.295 200.952 114.295 202.626 114.295 204.103V287.97C114.31 288.976 114.023 289.964 113.473 290.807C112.923 291.649 112.133 292.309 111.206 292.7C110.279 293.091 109.256 293.197 108.268 293.003C107.281 292.81 106.373 292.326 105.662 291.613C90.2217 275.832 78.9866 256.43 72.9856 235.182C66.9847 213.935 66.4095 191.522 71.3129 169.995C76.2163 148.468 86.4414 128.515 101.052 111.963C115.663 95.4102 134.193 82.7875 154.945 75.2501C175.697 67.7127 198.008 65.5014 219.836 68.8187C241.663 72.1361 262.31 80.876 279.886 94.2384C297.462 107.601 311.405 125.159 320.438 145.304C329.472 165.45 333.307 187.54 331.594 209.552L331.528 209.683ZM156.901 200.853C156.608 192.239 158.906 183.734 163.499 176.44C168.091 169.146 174.767 163.398 182.662 159.939C190.558 156.481 199.309 155.471 207.785 157.041C216.26 158.61 224.07 162.687 230.203 168.744C236.336 174.8 240.51 182.558 242.186 191.013C243.862 199.468 242.962 208.232 239.603 216.17C236.244 224.108 230.58 230.855 223.344 235.539C216.108 240.223 207.633 242.628 199.015 242.442C188.062 242.066 177.652 237.576 169.859 229.869C162.067 222.162 157.464 211.802 156.967 200.853H156.901Z" fill="white"/>
</svg>
