<svg width="70" height="70" viewBox="0 0 70 70" fill="none" xmlns="http://www.w3.org/2000/svg">
<path d="M65.7506 18.1854C64.5971 21.5061 62.3029 24.3098 59.2762 26.0978C56.2496 27.8858 52.6868 28.5422 49.2217 27.95C45.7567 27.3579 42.614 25.5557 40.3528 22.8641C38.0917 20.1725 36.8588 16.766 36.8734 13.2507C36.8722 10.8462 37.4585 8.47786 38.5813 6.35165C39.7042 4.22545 41.3295 2.40578 43.3159 1.05094C40.614 0.356151 37.8355 0.00309122 35.0457 2.98386e-05C28.1214 -0.0090097 21.35 2.03602 15.5883 5.87637C9.82659 9.71672 5.33344 15.1798 2.67737 21.5744C0.0212951 27.969 -0.678351 35.0078 0.666967 41.8001C2.01228 48.5925 5.34211 54.8332 10.2351 59.7326C15.1281 64.632 21.3644 67.9699 28.155 69.3241C34.9456 70.6783 41.9853 69.9879 48.3833 67.3401C54.7814 64.6924 60.2504 60.2064 64.0982 54.4497C67.9461 48.693 70 41.9243 70 35C69.9973 29.1298 68.5372 23.3521 65.7506 18.1854Z" fill="url(#paint0_linear_1932_1353)"/>
<defs>
<linearGradient id="paint0_linear_1932_1353" x1="0.0457079" y1="35" x2="70" y2="35" gradientUnits="userSpaceOnUse">
<stop stop-color="#FF6D00"/>
<stop offset="0.29" stop-color="#FF7300"/>
<stop offset="0.67" stop-color="#FF8300"/>
<stop offset="1" stop-color="#FF9700"/>
</linearGradient>
</defs>
</svg>
